<svg xmlns="http://www.w3.org/2000/svg" xmlns:xlink="http://www.w3.org/1999/xlink" width="822" height="405.001" viewBox="0 0 822 405.001">
  <defs>
    <linearGradient id="linear-gradient" x1="0.837" y1="0.97" x2="0.957" y2="0.784" gradientUnits="objectBoundingBox">
      <stop offset="0" stop-color="#761ffe"/>
      <stop offset="1" stop-color="#c500b0"/>
    </linearGradient>
    <linearGradient id="linear-gradient-2" x1="0.907" y1="0.037" x2="0.423" y2="0.406" gradientUnits="objectBoundingBox">
      <stop offset="0" stop-color="#29d9ff"/>
      <stop offset="1" stop-color="#0272f1"/>
    </linearGradient>
    <linearGradient id="linear-gradient-3" x1="0.764" y1="0.153" x2="0.105" y2="0.81" gradientUnits="objectBoundingBox">
      <stop offset="0" stop-color="#ffc300"/>
      <stop offset="1" stop-color="#ff1178"/>
    </linearGradient>
    <linearGradient id="linear-gradient-4" x1="0.919" y1="0.025" x2="0.049" y2="0.907" gradientUnits="objectBoundingBox">
      <stop offset="0" stop-color="#ff0aea"/>
      <stop offset="1" stop-color="#701bec"/>
    </linearGradient>
    <linearGradient id="linear-gradient-5" x1="0.693" y1="0.125" x2="0.222" y2="0.607" gradientUnits="objectBoundingBox">
      <stop offset="0" stop-color="#56ff6c"/>
      <stop offset="1" stop-color="#f0f000"/>
    </linearGradient>
    <radialGradient id="radial-gradient" cx="0.113" cy="0.064" r="0.556" gradientTransform="matrix(0.241, 0.97, -3.432, 0.853, 0.306, -0.1)" gradientUnits="objectBoundingBox">
      <stop offset="0" stop-color="#ff4c7c"/>
      <stop offset="1" stop-color="#fead06"/>
    </radialGradient>
  </defs>
  <g id="SearchEngineLogo" transform="translate(7258 -4184)">
    <g id="Colorful_Waves" data-name="Colorful Waves" transform="translate(-10804.846 1040.75) rotate(-90)">
      <path id="Path_251" data-name="Path 251" d="M0,0H345.519V782.386H0Z" transform="translate(-3510.331 3566.719)" fill="url(#linear-gradient)"/>
      <path id="Path_250" data-name="Path 250" d="M0,0,347.422-10V232.215c-31.332,21.743-66.372,45.733-97.734,89.334-24.5,36.509-10.935,222.57-43.313,271.277-22.814,31.753-33.4,39.669-48.944,59.587H3.388Z" transform="translate(-3510.751 3697.442)" fill="url(#linear-gradient-2)"/>
      <path id="Path_249" data-name="Path 249" d="M0,0H346.433V220.323c-35.6,24.146-74.308,50.72-103.957,91.938C218.68,347.716,231.857,528.4,200.414,575.7c-36.681,51.053-40.815,38.651-87.568,120.037C100.1,727.322,94.573,755.2,90.9,782.029H2.809Z" transform="translate(-3510.172 3566.361)" fill="url(#linear-gradient-3)"/>
      <path id="Path_248" data-name="Path 248" d="M0,0,347.031-2.1V109.2c-25.362,57.331-103.1,71.65-152.868,140.844-19.055,28.39-8.5,173.076-33.681,210.952-29.373,40.881-32.683,30.95-70.12,96.12C62.786,625.463,77.384,672.14,50.18,734.386a247,247,0,0,1-33.559,47.327H1.25Z" transform="translate(-3510.488 3566.475)" fill="url(#linear-gradient-4)"/>
      <path id="Path_247" data-name="Path 247" d="M0,0H246.472s7.83,18.707-8.721,71.718c-17.181,38.839-72.5,50.8-106.215,97.675-12.909,19.233-5.761,117.251-22.817,142.91C88.82,340,86.578,333.27,61.216,377.419c-18.681,46.3-8.792,77.924-27.221,120.092C17.868,526.8,0,540.341,0,540.341Z" transform="translate(-3510.172 3567.429)" fill="url(#linear-gradient-5)"/>
      <path id="Path_246" data-name="Path 246" d="M0,0H133.919c-17.22,17.893-14.977,83.29-28.811,102.233-23.625,33.1-53.21,33.522-68.641,61.031-10.642,42.621,2.554,66.246-14.686,96.2C13.268,273.143,0,282.373,0,282.373Z" transform="translate(-3510.231 3566.995)" fill="url(#radial-gradient)"/>
    </g>
    <path id="Exclusion_7" data-name="Exclusion 7" d="M1210,763H388V358h822V763ZM772.8,571a80.354,80.354,0,0,0-13.976,1.2,73.47,73.47,0,0,0-13.125,3.6,64.49,64.49,0,0,0-11.875,5.925A61.988,61.988,0,0,0,723.6,589.9a62.757,62.757,0,0,0-8.4,10.325A71.294,71.294,0,0,0,704.75,627a95.377,95.377,0,0,0-1.351,16.4,103.222,103.222,0,0,0,1.226,16.25A77.661,77.661,0,0,0,708.3,674a68.525,68.525,0,0,0,5.925,12.35A58.478,58.478,0,0,0,722.2,696.6a57.556,57.556,0,0,0,9.924,8.1,62.482,62.482,0,0,0,11.775,5.9,72.165,72.165,0,0,0,13.426,3.6,89.314,89.314,0,0,0,14.874,1.2c12.082,0,22.377-.841,30.6-2.5s14.277-3.237,18-4.7V639.6H789.6v48.2a42.57,42.57,0,0,1-6.5.8c-2.449.133-5.444.2-8.9.2a40.141,40.141,0,0,1-16.8-3.3,32.568,32.568,0,0,1-12-9.3,40.921,40.921,0,0,1-7.2-14.3,73.221,73.221,0,0,1,.027-37.276A41.279,41.279,0,0,1,745.5,610.3a29.583,29.583,0,0,1,12.724-9.075A52.605,52.605,0,0,1,777,598.2a62.784,62.784,0,0,1,18.1,2.5,81.6,81.6,0,0,1,14.7,5.9l9-25c-1.054-.66-2.837-1.6-5.3-2.8a63.331,63.331,0,0,0-9.4-3.5,111.985,111.985,0,0,0-13.6-3A110.069,110.069,0,0,0,772.8,571Zm291.4,3.2V712.8h98.2V686.6h-67V653.2h55.4V627.6h-55.4V600.4h62.4V574.2ZM943.8,622h0v0A480.013,480.013,0,0,1,977,665.8c10.343,15.381,20.1,31.194,29,47h26.2V574.2h-31V656c-4.718-7.08-9.9-14.65-15.4-22.5-5.453-7.78-11-15.384-16.5-22.6-5.508-7.232-10.992-14.129-16.3-20.5s-10.219-11.819-14.6-16.2H913V712.8h30.8Zm-94-47.8V712.8H881V574.2ZM589,622h0v0a480.1,480.1,0,0,1,33.2,43.8c10.339,15.376,20.1,31.189,29,47h26.2V574.2h-31V656c-4.767-7.151-9.948-14.721-15.4-22.5s-11.005-15.385-16.5-22.6-10.982-14.119-16.3-20.5-10.232-11.831-14.6-16.2H558.2V712.8H589ZM437,574.2V712.8h98.2V686.6h-67V653.2h55.4V627.6H468.2V600.4h62.4V574.2H437ZM1002,406a87.572,87.572,0,0,0-14.65,1.2,76.082,76.082,0,0,0-13.55,3.6,64.979,64.979,0,0,0-12.1,5.925,60.483,60.483,0,0,0-10.3,8.176A62.237,62.237,0,0,0,943,435.25a71.969,71.969,0,0,0-6.4,12.45,72.929,72.929,0,0,0-4.051,14.425A94.3,94.3,0,0,0,931.2,478.4a114.8,114.8,0,0,0,1.106,16.313,83.8,83.8,0,0,0,3.319,14.338,65.375,65.375,0,0,0,5.532,12.362A57.271,57.271,0,0,0,948.9,531.8a53.7,53.7,0,0,0,9.856,8.225,58.931,58.931,0,0,0,11.869,5.875,74.453,74.453,0,0,0,13.881,3.525A102.479,102.479,0,0,0,1000.4,550.6a108.932,108.932,0,0,0,27.8-3.2c7.965-2.124,14.223-4.546,18.6-7.2l-8.6-25c-1.724.8-3.676,1.669-5.8,2.6a50.591,50.591,0,0,1-7.4,2.5,91.1,91.1,0,0,1-9.6,1.9,84.175,84.175,0,0,1-12.2.8c-7.167,0-13.358-1.178-18.4-3.5a32.776,32.776,0,0,1-12.3-9.5,38.122,38.122,0,0,1-6.8-14.3,73.136,73.136,0,0,1-2.1-17.9c0-7.962,1.077-14.826,3.2-20.4a38.532,38.532,0,0,1,8.5-13.7,32.018,32.018,0,0,1,12.2-7.7,42.8,42.8,0,0,1,14.1-2.4,71.4,71.4,0,0,1,19.3,2.4,75.907,75.907,0,0,1,14.9,5.8l9-25.2c-1.069-.668-2.819-1.61-5.2-2.8a62.6,62.6,0,0,0-9-3.5,104.64,104.64,0,0,0-12.6-3A90.86,90.86,0,0,0,1002,406ZM425.8,515.2h0L417,540a74.86,74.86,0,0,0,6.9,3.4,75.884,75.884,0,0,0,9.8,3.4,107.414,107.414,0,0,0,13.1,2.7,114.2,114.2,0,0,0,16.6,1.1,95.916,95.916,0,0,0,23.951-2.675A46.23,46.23,0,0,0,504.4,539.9a34.253,34.253,0,0,0,10.2-12.876A41.622,41.622,0,0,0,518,509.8a49.252,49.252,0,0,0-2.6-17,33.11,33.11,0,0,0-7.9-12.2,50.476,50.476,0,0,0-13.3-9.1c-5.318-2.59-11.643-5.248-18.8-7.9-3.449-1.193-6.645-2.371-9.5-3.5a44.908,44.908,0,0,1-7.6-3.8,17.564,17.564,0,0,1-5.1-4.7,11.013,11.013,0,0,1-1.8-6.4,12.059,12.059,0,0,1,1.225-5.576A10.138,10.138,0,0,1,456.3,435.7c3.251-2.057,8.668-3.1,16.1-3.1a56.085,56.085,0,0,1,17.1,2.3,85.459,85.459,0,0,1,12.9,5.3l9-24.6a84.8,84.8,0,0,0-41-9.6,72.145,72.145,0,0,0-21.2,2.9,46.88,46.88,0,0,0-16,8.3A37.1,37.1,0,0,0,423,430.3a40.528,40.528,0,0,0-3.6,17.3c0,6.368,1.144,11.852,3.4,16.3a37.485,37.485,0,0,0,8.8,11.4,50.389,50.389,0,0,0,12.2,7.8c4.522,2.061,9.1,3.911,13.6,5.5,10.352,3.451,17.754,6.715,22,9.7a15.889,15.889,0,0,1,4.8,5.074,12.467,12.467,0,0,1,1.6,6.224,16.144,16.144,0,0,1-1,5.8,10.08,10.08,0,0,1-3.6,4.5,20.233,20.233,0,0,1-6.9,3,45.277,45.277,0,0,1-10.9,1.1c-8.763,0-16.266-.908-22.3-2.7a78.845,78.845,0,0,1-15.3-6.1ZM1098,489h52.4v58.8h31.2V409.2h-31.2v53H1098v-53h-31.2V547.8H1098V489Zm-244,8.2c2.671,3.193,5.373,6.793,8.03,10.7s5.4,8.113,8.132,12.5,5.433,8.957,8.03,13.6c2.514,4.495,5.115,9.138,7.729,13.8H920.8c-2.385-5.034-5.009-10.25-7.8-15.5-2.781-5.234-5.708-10.347-8.7-15.2-2.977-4.831-6.039-9.541-9.1-14s-6.013-8.45-8.8-11.9a52,52,0,0,0,11.125-6.175A38.764,38.764,0,0,0,905.7,476.9a32.467,32.467,0,0,0,5.025-10.476A48.8,48.8,0,0,0,912.4,453.2a54.881,54.881,0,0,0-1.037-10.932,40.242,40.242,0,0,0-3.112-9.394,34.693,34.693,0,0,0-5.188-7.856A37.073,37.073,0,0,0,895.8,418.7a61.244,61.244,0,0,0-20.251-8.324A123.108,123.108,0,0,0,848,407.6c-5.694,0-12.255.269-19.5.8a177.916,177.916,0,0,0-21.1,2.8V547.8h31.2V497.2H854ZM691.775,517.8h54.131l1.195,3.414q2.047,5.853,4.108,11.748c1.756,5.018,3.43,10.011,4.975,14.839H789.6c-5.195-14.846-10.2-28.775-14.869-41.4s-9.309-24.685-13.764-35.8c-4.465-11.147-8.961-21.879-13.362-31.9s-8.93-19.947-13.461-29.5H704.569c-4.667,9.572-9.224,19.5-13.541,29.5-4.312,9.984-8.768,20.717-13.242,31.9-4.445,11.112-9.068,23.156-13.74,35.8-4.615,12.485-9.61,26.414-14.846,41.4h32.4c1.5-4.736,3.152-9.714,4.911-14.8l5.262-15.2ZM542,409.2h0V547.8h98.2V521.6h-67V488.2h55.4V462.6H573.2V435.4h62.4V409.2H542ZM738.506,493H698.872c2.158-5.918,4.328-11.7,6.45-17.177,2.1-5.425,4.036-10.471,5.743-15,1.693-4.489,3.234-8.528,4.58-12.007,1.367-3.538,2.367-6.226,3.055-8.215.824,1.954,1.893,4.616,3.269,8.14,1.362,3.492,2.947,7.531,4.71,12.005,1.781,4.516,3.686,9.571,5.665,15.025,1.986,5.472,4.059,11.269,6.162,17.228ZM847.4,472.4h-8.8V434.8c1.6-.133,3.318-.268,5.1-.4s3.843-.2,6.1-.2a71.78,71.78,0,0,1,13.174,1.075A31.724,31.724,0,0,1,872.5,438.5a14.226,14.226,0,0,1,5.776,5.774A18.463,18.463,0,0,1,880.2,453a19.922,19.922,0,0,1-1.9,9.049A14.26,14.26,0,0,1,872.6,468a31.073,31.073,0,0,1-10.1,3.3A89.647,89.647,0,0,1,847.4,472.4Z" transform="translate(-7646 3826)" fill="#fff"/>
  </g>
</svg>
