<?xml version="1.0"?>
<svg xmlns="http://www.w3.org/2000/svg" xmlns:xlink="http://www.w3.org/1999/xlink" xmlns:svgjs="http://svgjs.com/svgjs" version="1.1" width="512" height="512" x="0" y="0" viewBox="0 0 512 512" style="enable-background:new 0 0 512 512" xml:space="preserve" class=""><g>
<g xmlns="http://www.w3.org/2000/svg">
	<g>
		<g>
			<circle cx="366" cy="146" r="20" fill="#7200d4" data-original="#000000" style="" class=""/>
			<path d="M258.214,431.972C354.244,430.78,432,352.307,432,256c0-26.969-6.105-52.536-16.993-75.404     c-7.963,11.26-19.7,19.653-33.377,23.335C388.306,219.978,392,237.564,392,256c0,69.552-52.484,127.067-119.925,135.046     L258.214,431.972z" fill="#7200d4" data-original="#000000" style="" class=""/>
			<path d="M366.024,441.806C333.779,460.973,296.156,472,256,472c-3.771,0-7.519-0.099-11.243-0.291l-13.252,39.132     C239.597,511.604,247.768,512,256,512c48.419,0,94.777-13.367,134.888-38.327C379.295,466.31,370.406,455.088,366.024,441.806z" fill="#7200d4" data-original="#000000" style="" class=""/>
			<path d="M437.02,74.98C388.667,26.629,324.38,0,256,0S123.333,26.629,74.98,74.98C26.629,123.333,0,187.62,0,256     s26.629,132.667,74.98,181.02c32.787,32.787,72.906,55.57,116.655,66.85l12.897-38.082c-0.039-0.01-0.078-0.02-0.117-0.03     l70.48-203.204l-0.015-0.005c0.713-2.054,1.119-4.252,1.119-6.549c0-11.046-8.954-20-20-20c-8.749,0-16.166,5.627-18.881,13.451     l-0.015-0.005l-17.128,49.383C207.772,288.549,200,273.168,200,256c0-30.878,25.121-56,56-56c30.117,0,54.745,23.9,55.942,53.727     c0.015,0.094,0.049,0.173,0.058,0.273c1,11-1,22.107-1,22.107l-23.957,70.739C324.79,333.913,352,298.076,352,256     c0-52.935-43.065-96-96-96s-96,43.065-96,96c0,34.773,18.59,65.276,46.348,82.12l-13.313,38.383     c-28.159-14.775-50.542-39.121-62.774-68.701C121.375,313.005,111.04,316,100,316c-3.319,0-6.572-0.281-9.745-0.8     c15.652,43.69,48.119,79.438,89.558,99.425l-13.177,37.992C92.002,418.564,40,343.247,40,256c0-119.103,96.897-216,216-216     s216,96.897,216,216c0,40.156-11.027,77.779-30.194,110.024c13.282,4.382,24.504,13.272,31.867,24.864     C498.633,350.778,512,304.419,512,256C512,187.62,485.371,123.333,437.02,74.98z" fill="#7200d4" data-original="#000000" style="" class=""/>
			<circle cx="100" cy="256" r="20" fill="#7200d4" data-original="#000000" style="" class=""/>
			<path d="M256,120c18.436,0,36.022,3.694,52.069,10.37c3.682-13.677,12.075-25.413,23.335-33.377     C308.536,86.105,282.969,80,256,80c-76.285,0-141.38,48.79-165.745,116.8c3.173-0.518,6.426-0.8,9.745-0.8     c11.04,0,21.375,2.995,30.261,8.197C150.676,154.829,199.344,120,256,120z" fill="#7200d4" data-original="#000000" style="" class=""/>
			<circle cx="423" cy="423" r="20" fill="#7200d4" data-original="#000000" style="" class=""/>
		</g>
	</g>
</g>
<g xmlns="http://www.w3.org/2000/svg">
</g>
<g xmlns="http://www.w3.org/2000/svg">
</g>
<g xmlns="http://www.w3.org/2000/svg">
</g>
<g xmlns="http://www.w3.org/2000/svg">
</g>
<g xmlns="http://www.w3.org/2000/svg">
</g>
<g xmlns="http://www.w3.org/2000/svg">
</g>
<g xmlns="http://www.w3.org/2000/svg">
</g>
<g xmlns="http://www.w3.org/2000/svg">
</g>
<g xmlns="http://www.w3.org/2000/svg">
</g>
<g xmlns="http://www.w3.org/2000/svg">
</g>
<g xmlns="http://www.w3.org/2000/svg">
</g>
<g xmlns="http://www.w3.org/2000/svg">
</g>
<g xmlns="http://www.w3.org/2000/svg">
</g>
<g xmlns="http://www.w3.org/2000/svg">
</g>
<g xmlns="http://www.w3.org/2000/svg">
</g>
</g></svg>
