<svg xmlns="http://www.w3.org/2000/svg" xmlns:xlink="http://www.w3.org/1999/xlink" width="1614" height="243.001" viewBox="0 0 1614 243.001">
  <defs>
    <linearGradient id="linear-gradient" x1="0.837" y1="0.97" x2="0.957" y2="0.784" gradientUnits="objectBoundingBox">
      <stop offset="0" stop-color="#761ffe"/>
      <stop offset="1" stop-color="#c500b0"/>
    </linearGradient>
    <linearGradient id="linear-gradient-2" x1="0.907" y1="0.037" x2="0.423" y2="0.406" gradientUnits="objectBoundingBox">
      <stop offset="0" stop-color="#29d9ff"/>
      <stop offset="1" stop-color="#0272f1"/>
    </linearGradient>
    <linearGradient id="linear-gradient-3" x1="0.764" y1="0.153" x2="0.105" y2="0.81" gradientUnits="objectBoundingBox">
      <stop offset="0" stop-color="#ffc300"/>
      <stop offset="1" stop-color="#ff1178"/>
    </linearGradient>
    <linearGradient id="linear-gradient-4" x1="0.919" y1="0.025" x2="0.049" y2="0.907" gradientUnits="objectBoundingBox">
      <stop offset="0" stop-color="#ff0aea"/>
      <stop offset="1" stop-color="#701bec"/>
    </linearGradient>
    <linearGradient id="linear-gradient-5" x1="0.693" y1="0.125" x2="0.222" y2="0.607" gradientUnits="objectBoundingBox">
      <stop offset="0" stop-color="#56ff6c"/>
      <stop offset="1" stop-color="#f0f000"/>
    </linearGradient>
    <radialGradient id="radial-gradient" cx="0.113" cy="0.064" r="0.556" gradientTransform="matrix(0.241, 0.97, -3.432, 0.853, 0.306, -0.1)" gradientUnits="objectBoundingBox">
      <stop offset="0" stop-color="#ff4c7c"/>
      <stop offset="1" stop-color="#fead06"/>
    </radialGradient>
  </defs>
  <g id="SearchEngineLogo" transform="translate(7264 -4271)">
    <g id="Colorful_Waves" data-name="Colorful Waves" transform="translate(-10821.886 1215.245) rotate(-90)">
      <path id="Path_251" data-name="Path 251" d="M0,0H209.139V1585.928H0Z" transform="translate(-3283.389 3569.078)" fill="url(#linear-gradient)"/>
      <path id="Path_250" data-name="Path 250" d="M234.394,2.739l180.581-5.2,1.885,1035.708c-5.469,21.556-12.207,39.467-20.674,52.2-41.431,57.664-60.658,72.039-88.884,108.211H227.633Z" transform="translate(-3500.93 3821.069)" fill="url(#linear-gradient-2)"/>
      <path id="Path_249" data-name="Path 249" d="M229.485,0H404.27l5.378,873.434c-6.216,52.91-15.59,98.24-31.914,122.8-63.475,88.346-70.629,66.884-151.533,207.719Z" transform="translate(-3495.064 3568.362)" fill="url(#linear-gradient-3)"/>
      <path id="Path_248" data-name="Path 248" d="M230.946.5,401.987-.542l.384,370.563a348.312,348.312,0,0,0-40.847,47.05C329.868,464.236,347.4,704.61,305.568,767.535c-36.208,50.395-48.577,54.313-78.041,97.33Z" transform="translate(-3492.166 3566.475)" fill="url(#linear-gradient-4)"/>
      <path id="Path_247" data-name="Path 247" d="M237.484,0H437.175l1.582,193.556C390,237.727,314.559,268.8,263.666,339.551,241,373.323,249.183,528.28,228.516,600.987Z" transform="translate(-3509.59 3592.502)" fill="url(#linear-gradient-5)"/>
      <path id="Path_246" data-name="Path 246" d="M152.574,0h115.87c-34.517,35.867-30.021,166.956-57.753,204.927-19.18,26.868-40.318,43-60.9,56.439Z" transform="translate(-3407.709 3564.632)" fill="url(#radial-gradient)"/>
    </g>
    <path id="Exclusion_7" data-name="Exclusion 7" d="M1996,683H382V440H1996V683ZM1576.8,489a80.393,80.393,0,0,0-13.974,1.2,73.333,73.333,0,0,0-13.125,3.6,64.528,64.528,0,0,0-11.875,5.924A61.927,61.927,0,0,0,1527.6,507.9a62.667,62.667,0,0,0-8.4,10.325A71.24,71.24,0,0,0,1508.751,545a95.423,95.423,0,0,0-1.35,16.4,103.312,103.312,0,0,0,1.225,16.25A77.647,77.647,0,0,0,1512.3,592a68.485,68.485,0,0,0,5.925,12.349A58.469,58.469,0,0,0,1526.2,614.6a57.564,57.564,0,0,0,9.925,8.1,62.464,62.464,0,0,0,11.776,5.9,72.224,72.224,0,0,0,13.424,3.6,89.266,89.266,0,0,0,14.875,1.2c12.081,0,22.376-.841,30.6-2.5s14.289-3.243,18-4.7V557.6h-31.2v48.2a42.488,42.488,0,0,1-6.5.8c-2.466.131-5.461.2-8.9.2a40.164,40.164,0,0,1-16.8-3.3,32.559,32.559,0,0,1-12-9.3,40.854,40.854,0,0,1-7.2-14.3,73.193,73.193,0,0,1,.024-37.275A41.275,41.275,0,0,1,1549.5,528.3a29.6,29.6,0,0,1,12.726-9.075A52.6,52.6,0,0,1,1581,516.2a62.873,62.873,0,0,1,18.1,2.5,81.782,81.782,0,0,1,14.7,5.9l9-25c-1.059-.662-2.842-1.6-5.3-2.8a63.3,63.3,0,0,0-9.4-3.5,112.147,112.147,0,0,0-13.6-3A109.985,109.985,0,0,0,1576.8,489ZM1002,488a87.628,87.628,0,0,0-14.65,1.2,76,76,0,0,0-13.55,3.6,65,65,0,0,0-12.1,5.925,60.485,60.485,0,0,0-10.3,8.176,62.233,62.233,0,0,0-8.4,10.35,72,72,0,0,0-6.4,12.451,72.93,72.93,0,0,0-4.051,14.425A94.319,94.319,0,0,0,931.2,560.4a114.753,114.753,0,0,0,1.106,16.313,83.745,83.745,0,0,0,3.319,14.337,65.37,65.37,0,0,0,5.531,12.362A57.268,57.268,0,0,0,948.9,613.8a53.685,53.685,0,0,0,9.856,8.226,58.917,58.917,0,0,0,11.869,5.875,74.431,74.431,0,0,0,13.881,3.525A102.464,102.464,0,0,0,1000.4,632.6a108.882,108.882,0,0,0,27.8-3.2c7.962-2.122,14.22-4.544,18.6-7.2l-8.6-25c-1.73.8-3.681,1.673-5.8,2.6a50.612,50.612,0,0,1-7.4,2.5,90.934,90.934,0,0,1-9.6,1.9,84.457,84.457,0,0,1-12.2.8c-7.169,0-13.36-1.178-18.4-3.5a32.8,32.8,0,0,1-12.3-9.5,38.122,38.122,0,0,1-6.8-14.3,73.122,73.122,0,0,1-2.1-17.9c0-7.964,1.076-14.827,3.2-20.4a38.528,38.528,0,0,1,8.5-13.7,32.029,32.029,0,0,1,12.2-7.7,42.824,42.824,0,0,1,14.1-2.4,71.427,71.427,0,0,1,19.3,2.4,76.02,76.02,0,0,1,14.9,5.8l9-25.2c-1.054-.658-2.8-1.6-5.2-2.8a62.479,62.479,0,0,0-9-3.5,104.546,104.546,0,0,0-12.6-3A90.816,90.816,0,0,0,1002,488ZM425.8,597.2,417,622a72.95,72.95,0,0,0,16.7,6.8,107.755,107.755,0,0,0,13.1,2.7,113.906,113.906,0,0,0,16.6,1.1,95.91,95.91,0,0,0,23.951-2.675A46.237,46.237,0,0,0,504.4,621.9a34.249,34.249,0,0,0,10.2-12.876A41.608,41.608,0,0,0,518,591.8a49.266,49.266,0,0,0-2.6-17,33.1,33.1,0,0,0-7.9-12.2,50.4,50.4,0,0,0-13.3-9.1c-5.31-2.589-11.636-5.247-18.8-7.9-3.437-1.189-6.633-2.367-9.5-3.5a44.985,44.985,0,0,1-7.6-3.8,17.548,17.548,0,0,1-5.1-4.7,11.011,11.011,0,0,1-1.8-6.4,12.056,12.056,0,0,1,1.226-5.575A10.136,10.136,0,0,1,456.3,517.7c3.251-2.057,8.668-3.1,16.1-3.1a56.11,56.11,0,0,1,17.1,2.3,85.624,85.624,0,0,1,12.9,5.3l9-24.6a84.749,84.749,0,0,0-41-9.6,72.18,72.18,0,0,0-21.2,2.9,46.879,46.879,0,0,0-16,8.3A37.085,37.085,0,0,0,423,512.3a40.537,40.537,0,0,0-3.6,17.3c0,6.368,1.144,11.852,3.4,16.3a37.483,37.483,0,0,0,8.8,11.4,50.334,50.334,0,0,0,12.2,7.8c4.524,2.062,9.1,3.912,13.6,5.5,10.344,3.448,17.746,6.712,22,9.7a15.887,15.887,0,0,1,4.8,5.075,12.465,12.465,0,0,1,1.6,6.225,16.152,16.152,0,0,1-1,5.8,10.075,10.075,0,0,1-3.6,4.5,20.173,20.173,0,0,1-6.9,3,45.232,45.232,0,0,1-10.9,1.1c-8.762,0-16.264-.908-22.3-2.7A78.877,78.877,0,0,1,425.8,597.2Zm1442.4-105h0V630.8h98.2V604.6h-67V571.2h55.4V545.6h-55.4V518.4h62.4V492.2h-93.6ZM1747.8,540h0v0a479.7,479.7,0,0,1,33.2,43.8c10.346,15.384,20.1,31.2,29,47h26.2V492.2h-31V574c-4.727-7.092-9.908-14.662-15.4-22.5-5.439-7.762-10.99-15.366-16.5-22.6s-11-14.14-16.3-20.5-10.223-11.825-14.6-16.2H1717V630.8h30.8Zm-94-47.8h0V630.8H1685V492.2h-31.2ZM1393,540h0v0a479.374,479.374,0,0,1,33.2,43.8c10.347,15.387,20.1,31.2,29,47h26.2V492.2h-31V574c-4.751-7.128-9.931-14.7-15.4-22.5-5.438-7.761-10.989-15.365-16.5-22.6s-11-14.136-16.3-20.5-10.21-11.811-14.6-16.2h-25.4V630.8H1393Zm-152-47.8h0V630.8h98.2V604.6h-67V571.2h55.4V545.6h-55.4V518.4h62.4V492.2H1241ZM1098,571h52.4v58.8h31.2V491.2h-31.2v53H1098v-53h-31.2V629.8H1098V571Zm-244,8.2c2.665,3.185,5.367,6.784,8.03,10.7s5.394,8.108,8.133,12.5c2.725,4.37,5.427,8.946,8.03,13.6,2.393,4.277,4.921,8.792,7.729,13.8H920.8c-2.389-5.044-5.014-10.26-7.8-15.5s-5.707-10.349-8.7-15.2c-2.964-4.81-6.026-9.52-9.1-14-3.053-4.45-6.014-8.454-8.8-11.9a51.994,51.994,0,0,0,11.125-6.175A38.756,38.756,0,0,0,905.7,558.9a32.469,32.469,0,0,0,5.025-10.475A48.807,48.807,0,0,0,912.4,535.2a54.876,54.876,0,0,0-1.037-10.931,40.251,40.251,0,0,0-3.113-9.394,34.676,34.676,0,0,0-5.187-7.857,37.07,37.07,0,0,0-7.262-6.32,61.244,61.244,0,0,0-20.25-8.324A123.115,123.115,0,0,0,848,489.6c-5.7,0-12.256.269-19.5.8a177.756,177.756,0,0,0-21.1,2.8V629.8h31.2V579.2H854ZM691.775,599.8h54.131l.957,2.735,4.345,12.425c1.765,5.044,3.439,10.037,4.975,14.839H789.6c-5.194-14.843-10.2-28.773-14.869-41.4-4.666-12.611-9.3-24.656-13.764-35.8s-8.961-21.879-13.362-31.9-8.921-19.931-13.461-29.5H704.569c-4.676,9.592-9.232,19.518-13.541,29.5s-8.767,20.714-13.242,31.9c-4.46,11.152-9.083,23.2-13.739,35.8-4.616,12.488-9.611,26.417-14.847,41.4h32.4c1.5-4.74,3.154-9.719,4.911-14.8s3.513-10.15,5.262-15.2ZM542,491.2V629.8h98.2V603.6h-67V570.2h55.4V544.6H573.2V517.4h62.4V491.2ZM738.506,575H698.873c2.152-5.9,4.322-11.68,6.45-17.175,2.121-5.471,4.053-10.518,5.743-15s3.227-8.512,4.58-12.009c1.368-3.539,2.367-6.227,3.055-8.216.822,1.948,1.89,4.611,3.269,8.141,1.419,3.636,3,7.674,4.71,12,1.776,4.506,3.682,9.561,5.665,15.026,1.969,5.422,4.042,11.218,6.162,17.227ZM847.4,554.4h-8.8V516.8c1.732-.144,3.448-.278,5.1-.4,1.767-.132,3.82-.2,6.1-.2a71.8,71.8,0,0,1,13.174,1.074A31.692,31.692,0,0,1,872.5,520.5a14.228,14.228,0,0,1,5.776,5.774A18.462,18.462,0,0,1,880.2,535a19.921,19.921,0,0,1-1.9,9.05,14.258,14.258,0,0,1-5.7,5.95,31.074,31.074,0,0,1-10.1,3.3A89.653,89.653,0,0,1,847.4,554.4Z" transform="translate(-7646 3831)" fill="#fff"/>
  </g>
</svg>
